<?xml version="1.0" standalone="no"?>
<!DOCTYPE svg PUBLIC "-//W3C//DTD SVG 20010904//EN"
 "http://www.w3.org/TR/2001/REC-SVG-20010904/DTD/svg10.dtd">
<svg version="1.0" xmlns="http://www.w3.org/2000/svg"
 width="121.000000pt" height="65.000000pt" viewBox="0 0 121.000000 65.000000"
 preserveAspectRatio="xMidYMid meet">

<g transform="translate(0.000000,65.000000) scale(0.100000,-0.100000)"
fill="#000000" stroke="none">
<path d="M0 325 l0 -325 605 0 605 0 0 325 0 325 -605 0 -605 0 0 -325z m150
150 l0 -115 65 0 65 0 0 115 0 115 40 0 40 0 0 -275 0 -275 -40 0 -40 0 0 130
0 130 -65 0 -65 0 0 -130 0 -130 -45 0 -45 0 0 275 0 275 45 0 45 0 0 -115z
m510 85 l0 -30 -70 0 -70 0 0 -85 0 -85 55 0 c54 0 55 0 55 -30 0 -30 -1 -30
-55 -30 l-55 0 0 -95 0 -94 68 -3 67 -3 3 -33 3 -32 -110 0 -111 0 0 275 0
275 110 0 110 0 0 -30z m336 -132 l69 -163 3 163 2 162 35 0 35 0 0 -275 0
-275 -30 0 c-17 0 -30 5 -30 13 0 6 -30 84 -67 172 l-68 160 -3 -173 -2 -172
-35 0 -35 0 0 275 0 275 28 0 c28 0 32 -7 98 -162z m-206 102 l0 -40 -40 0
-40 0 0 40 0 40 40 0 40 0 0 -40z m0 -295 l0 -195 -40 0 -40 0 0 195 0 195 40
0 40 0 0 -195z"/>
</g>
</svg>
